<svg width="1600" height="900" viewBox="0 0 1600 900" fill="none" xmlns="http://www.w3.org/2000/svg">
  <defs>
    <linearGradient id="sky" x1="0" y1="0" x2="1600" y2="900" gradientUnits="userSpaceOnUse">
      <stop stop-color="#09111D"/>
      <stop offset="0.45" stop-color="#12243B"/>
      <stop offset="1" stop-color="#1C3551"/>
    </linearGradient>
    <linearGradient id="glow" x1="260" y1="150" x2="420" y2="320" gradientUnits="userSpaceOnUse">
      <stop stop-color="#FFD36A" stop-opacity="0.9"/>
      <stop offset="1" stop-color="#FFD36A" stop-opacity="0"/>
    </linearGradient>
    <linearGradient id="hill" x1="0" y1="560" x2="1600" y2="900" gradientUnits="userSpaceOnUse">
      <stop stop-color="#0F1B2D"/>
      <stop offset="1" stop-color="#08111D"/>
    </linearGradient>
  </defs>
  <rect width="1600" height="900" fill="url(#sky)"/>
  <circle cx="350" cy="210" r="155" fill="url(#glow)"/>
  <circle cx="1180" cy="160" r="90" fill="#FFD36A" fill-opacity="0.1"/>
  <path d="M0 580C140 520 240 520 360 560C480 600 580 620 690 580C800 540 920 480 1040 500C1160 520 1260 600 1380 570C1480 545 1540 520 1600 510V900H0V580Z" fill="url(#hill)"/>
  <path d="M0 650C160 610 290 610 420 650C550 690 650 710 760 680C870 650 980 600 1100 610C1220 620 1340 700 1460 670C1520 655 1560 640 1600 635" stroke="#7EC8D6" stroke-opacity="0.2" stroke-width="4"/>
  <path d="M0 715C180 675 300 680 420 720C540 760 640 770 760 740C880 710 1020 660 1140 670C1260 680 1380 750 1600 725" stroke="#F5B942" stroke-opacity="0.14" stroke-width="3"/>
  <g opacity="0.18">
    <circle cx="1170" cy="280" r="38" fill="#F5B942"/>
    <path d="M1170 244C1152 244 1138 258 1138 276C1138 301 1170 335 1170 335C1170 335 1202 301 1202 276C1202 258 1188 244 1170 244Z" fill="#F5B942"/>
    <circle cx="1170" cy="276" r="12" fill="#08111D"/>
  </g>
  <g stroke="#D7E3F3" stroke-opacity="0.1" stroke-width="2">
    <path d="M90 140H290"/>
    <path d="M120 180H410"/>
    <path d="M1170 120H1440"/>
    <path d="M1100 160H1480"/>
  </g>
  <g opacity="0.12">
    <circle cx="1260" cy="720" r="3" fill="#F5B942"/>
    <circle cx="1290" cy="744" r="2" fill="#58C7D2"/>
    <circle cx="1335" cy="700" r="4" fill="#F07C5C"/>
    <circle cx="1388" cy="732" r="3" fill="#9AD94B"/>
  </g>
</svg>
